# xmcd
#
# Track frame offsets:
#  150
#  14660
#  29263
#  43619
#  65404
#  94093
#  108847
#  121971
#  137908
#  154324
#  177547
#  199051
#  213811
#  224276
#  245881
#  262081
#
# Disc length: 3667 seconds
#
# Revision: 0
# Processed by: cddbd v1.5.1PL2 Copyright (c) Steve Scherf et al.
# Submitted via: Collectorz.com_Music_Collector 6.9
#
DISCID=f20e5110
DTITLE=Bushwackers Band - The Great Bushwackers Band - Disc 1
DYEAR=2002
DGENRE=Folk
TTITLE0=(Trad Arr - The Bushwackers) - To The Shores Of Botany Bay
TTITLE1=(Trad Arr - The Bushwackers) - The Wooloomooloo Lair
TTITLE2=(Trad Arr - The Bushwackers) - Clancy Of The Overflow
TTITLE3=(Trad Arr - The Bushwackers) - The Overlanders
TTITLE4=(Eric Bogle) - And The Band Played Waltzing Matilda
TTITLE5=(Cowan/Paterson) - Waltzing Matilda
TTITLE6=(B. Smeaton) - Theme From Ben Hall
TTITLE7=(Trad Arr - The Bushwackers) - One Of The Has Beens
TTITLE8=(Trad Arr - The Bushwackers) - Jog Along Till Shearing
TTITLE9=(The Bushwackers) - The New Room
TTITLE10=(Arr - Slocum Wositzky/Newton) - Van Diemens Land
TTITLE11=(Arr - Slocum Wositzky/Newton) - Lachlan Tigers
TTITLE12=(Arr - Slocum Wositzky/Newton) - Lime Juice Tub
TTITLE13=(Arr - Slocum Wositzky/Newton) - The Flying Pieman
TTITLE14=(Hanley) - Marijuana Australia
TTITLE15=(Arr - Slocum Wositzky/Newton) - Theme from "Cash and Co"
EXTD=
EXTT0=
EXTT1=
EXTT2=
EXTT3=
EXTT4=
EXTT5=
EXTT6=
EXTT7=
EXTT8=
EXTT9=
EXTT10=
EXTT11=
EXTT12=
EXTT13=
EXTT14=
EXTT15=
PLAYORDER=
